<?xml version="1.0" encoding="UTF-8" standalone="no"?>
<!DOCTYPE svg PUBLIC "-//W3C//DTD SVG 1.1//EN"
 "http://www.w3.org/Graphics/SVG/1.1/DTD/svg11.dtd">
<!-- Generated by graphviz version 9.0.0 (20230911.1827)
 -->
<!-- Pages: 1 -->
<svg width="645pt" height="482pt"
 viewBox="0.00 0.00 645.34 482.36" xmlns="http://www.w3.org/2000/svg" xmlns:xlink="http://www.w3.org/1999/xlink">
<g id="graph0" class="graph" transform="scale(1 1) rotate(0) translate(4 478.36)">
<polygon fill="white" stroke="none" points="-4,4 -4,-478.36 641.34,-478.36 641.34,4 -4,4"/>
<g id="clust1" class="cluster">
<title>clusterpredictors (11)</title>
<path fill="none" stroke="black" d="M132.33,-137.82C132.33,-137.82 350.33,-137.82 350.33,-137.82 356.33,-137.82 362.33,-143.82 362.33,-149.82 362.33,-149.82 362.33,-353.04 362.33,-353.04 362.33,-359.04 356.33,-365.04 350.33,-365.04 350.33,-365.04 132.33,-365.04 132.33,-365.04 126.33,-365.04 120.33,-359.04 120.33,-353.04 120.33,-353.04 120.33,-149.82 120.33,-149.82 120.33,-143.82 126.33,-137.82 132.33,-137.82"/>
<text text-anchor="middle" x="314.21" y="-145.02" font-family="Times,serif" font-size="14.00">predictors (11)</text>
</g>
<g id="clust2" class="cluster">
<title>cluster101</title>
<path fill="none" stroke="black" d="M490.33,-8C490.33,-8 564.33,-8 564.33,-8 570.33,-8 576.33,-14 576.33,-20 576.33,-20 576.33,-117.82 576.33,-117.82 576.33,-123.82 570.33,-129.82 564.33,-129.82 564.33,-129.82 490.33,-129.82 490.33,-129.82 484.33,-129.82 478.33,-123.82 478.33,-117.82 478.33,-117.82 478.33,-20 478.33,-20 478.33,-14 484.33,-8 490.33,-8"/>
<text text-anchor="middle" x="558.21" y="-15.2" font-family="Times,serif" font-size="14.00">101</text>
</g>
<!-- c2 -->
<g id="node1" class="node">
<title>c2</title>
<ellipse fill="none" stroke="black" cx="55.33" cy="-316.38" rx="55.33" ry="40.66"/>
<text text-anchor="middle" x="55.33" y="-327.83" font-family="Times,serif" font-size="14.00">c2</text>
<text text-anchor="middle" x="55.33" y="-311.33" font-family="Times,serif" font-size="14.00">~</text>
<text text-anchor="middle" x="55.33" y="-294.83" font-family="Times,serif" font-size="14.00">InvGamma</text>
</g>
<!-- beta -->
<g id="node6" class="node">
<title>beta</title>
<polygon fill="none" stroke="black" points="336.46,-227.82 246.21,-227.82 246.21,-170.32 336.46,-170.32 336.46,-227.82"/>
<text text-anchor="middle" x="291.33" y="-210.52" font-family="Times,serif" font-size="14.00">beta</text>
<text text-anchor="middle" x="291.33" y="-194.02" font-family="Times,serif" font-size="14.00">~</text>
<text text-anchor="middle" x="291.33" y="-177.52" font-family="Times,serif" font-size="14.00">Deterministic</text>
</g>
<!-- c2&#45;&gt;beta -->
<g id="edge2" class="edge">
<title>c2&#45;&gt;beta</title>
<path fill="none" stroke="black" d="M95.44,-287.95C102.29,-283.66 109.43,-279.43 116.33,-275.73 154.93,-255.03 200.37,-235.51 235.28,-221.49"/>
<polygon fill="black" stroke="black" points="236.35,-224.83 244.35,-217.88 233.76,-218.33 236.35,-224.83"/>
</g>
<!-- sigma -->
<g id="node2" class="node">
<title>sigma</title>
<ellipse fill="none" stroke="black" cx="481.33" cy="-433.7" rx="57.98" ry="40.66"/>
<text text-anchor="middle" x="481.33" y="-445.15" font-family="Times,serif" font-size="14.00">sigma</text>
<text text-anchor="middle" x="481.33" y="-428.65" font-family="Times,serif" font-size="14.00">~</text>
<text text-anchor="middle" x="481.33" y="-412.15" font-family="Times,serif" font-size="14.00">HalfNormal</text>
</g>
<!-- tau -->
<g id="node3" class="node">
<title>tau</title>
<ellipse fill="none" stroke="black" cx="436.33" cy="-316.38" rx="63.29" ry="40.66"/>
<text text-anchor="middle" x="436.33" y="-327.83" font-family="Times,serif" font-size="14.00">tau</text>
<text text-anchor="middle" x="436.33" y="-311.33" font-family="Times,serif" font-size="14.00">~</text>
<text text-anchor="middle" x="436.33" y="-294.83" font-family="Times,serif" font-size="14.00">HalfStudentT</text>
</g>
<!-- sigma&#45;&gt;tau -->
<g id="edge1" class="edge">
<title>sigma&#45;&gt;tau</title>
<path fill="none" stroke="black" d="M466.22,-393.98C462.81,-385.23 459.14,-375.83 455.58,-366.72"/>
<polygon fill="black" stroke="black" points="458.92,-365.65 452.03,-357.61 452.4,-368.2 458.92,-365.65"/>
</g>
<!-- scores -->
<g id="node8" class="node">
<title>scores</title>
<ellipse fill="lightgrey" stroke="black" cx="527.33" cy="-81.16" rx="41.01" ry="40.66"/>
<text text-anchor="middle" x="527.33" y="-92.61" font-family="Times,serif" font-size="14.00">scores</text>
<text text-anchor="middle" x="527.33" y="-76.11" font-family="Times,serif" font-size="14.00">~</text>
<text text-anchor="middle" x="527.33" y="-59.61" font-family="Times,serif" font-size="14.00">Normal</text>
</g>
<!-- sigma&#45;&gt;scores -->
<g id="edge6" class="edge">
<title>sigma&#45;&gt;scores</title>
<path fill="none" stroke="black" d="M498.89,-394.73C502.61,-385.22 506.09,-374.91 508.33,-365.04 526.39,-285.56 529.03,-190.54 528.65,-133.34"/>
<polygon fill="black" stroke="black" points="532.15,-133.55 528.55,-123.59 525.15,-133.63 532.15,-133.55"/>
</g>
<!-- tau&#45;&gt;beta -->
<g id="edge4" class="edge">
<title>tau&#45;&gt;beta</title>
<path fill="none" stroke="black" d="M397.09,-284.18C378.04,-269.02 355.07,-250.76 335.41,-235.12"/>
<polygon fill="black" stroke="black" points="337.83,-232.57 327.82,-229.09 333.47,-238.05 337.83,-232.57"/>
</g>
<!-- beta0 -->
<g id="node4" class="node">
<title>beta0</title>
<ellipse fill="none" stroke="black" cx="596.33" cy="-199.07" rx="41.01" ry="40.66"/>
<text text-anchor="middle" x="596.33" y="-210.52" font-family="Times,serif" font-size="14.00">beta0</text>
<text text-anchor="middle" x="596.33" y="-194.02" font-family="Times,serif" font-size="14.00">~</text>
<text text-anchor="middle" x="596.33" y="-177.52" font-family="Times,serif" font-size="14.00">Normal</text>
</g>
<!-- beta0&#45;&gt;scores -->
<g id="edge8" class="edge">
<title>beta0&#45;&gt;scores</title>
<path fill="none" stroke="black" d="M575.82,-163.6C568.86,-151.92 560.98,-138.69 553.64,-126.35"/>
<polygon fill="black" stroke="black" points="556.78,-124.79 548.66,-117.99 550.77,-128.37 556.78,-124.79"/>
</g>
<!-- lam -->
<g id="node5" class="node">
<title>lam</title>
<ellipse fill="none" stroke="black" cx="291.33" cy="-316.38" rx="63.29" ry="40.66"/>
<text text-anchor="middle" x="291.33" y="-327.83" font-family="Times,serif" font-size="14.00">lam</text>
<text text-anchor="middle" x="291.33" y="-311.33" font-family="Times,serif" font-size="14.00">~</text>
<text text-anchor="middle" x="291.33" y="-294.83" font-family="Times,serif" font-size="14.00">HalfStudentT</text>
</g>
<!-- lam&#45;&gt;beta -->
<g id="edge3" class="edge">
<title>lam&#45;&gt;beta</title>
<path fill="none" stroke="black" d="M291.33,-275.38C291.33,-263.67 291.33,-250.88 291.33,-239.23"/>
<polygon fill="black" stroke="black" points="294.83,-239.54 291.33,-229.54 287.83,-239.54 294.83,-239.54"/>
</g>
<!-- beta&#45;&gt;scores -->
<g id="edge7" class="edge">
<title>beta&#45;&gt;scores</title>
<path fill="none" stroke="black" d="M336.83,-175.72C378.2,-155.4 438.97,-125.56 480.69,-105.07"/>
<polygon fill="black" stroke="black" points="482.07,-108.29 489.5,-100.74 478.98,-102 482.07,-108.29"/>
</g>
<!-- z -->
<g id="node7" class="node">
<title>z</title>
<ellipse fill="none" stroke="black" cx="169.33" cy="-316.38" rx="41.01" ry="40.66"/>
<text text-anchor="middle" x="169.33" y="-327.83" font-family="Times,serif" font-size="14.00">z</text>
<text text-anchor="middle" x="169.33" y="-311.33" font-family="Times,serif" font-size="14.00">~</text>
<text text-anchor="middle" x="169.33" y="-294.83" font-family="Times,serif" font-size="14.00">Normal</text>
</g>
<!-- z&#45;&gt;beta -->
<g id="edge5" class="edge">
<title>z&#45;&gt;beta</title>
<path fill="none" stroke="black" d="M198.86,-287.47C215.23,-272 235.75,-252.6 253.3,-236.01"/>
<polygon fill="black" stroke="black" points="255.68,-238.58 260.55,-229.16 250.88,-233.49 255.68,-238.58"/>
</g>
</g>
</svg>